<?xml version="1.0" encoding="UTF-8"?>
<svg width="1024px" height="1024px" viewBox="0 0 1024 1024" version="1.1" xmlns="http://www.w3.org/2000/svg" xmlns:xlink="http://www.w3.org/1999/xlink">
    <g id="icon" stroke="none" stroke-width="1" fill="none" fill-rule="evenodd">
        <g id="Group" transform="translate(119.047058, 373.200000)" fill="#FFFFFF">
            <g id="SSH" transform="translate(164.752942, 0.000000)" fill-rule="nonzero">
                <path d="M81.36,277.2 C55.44,277.2 35.4,272.22 21.24,262.26 C7.08,252.3 -5.68434189e-14,238.32 -5.68434189e-14,220.32 L-5.68434189e-14,204.48 C-5.68434189e-14,198.96 4.8,196.2 14.4,196.2 C24,196.2 28.8,198.96 28.8,204.48 L28.8,223.92 C28.8,232.8 33.42,239.7 42.66,244.62 C51.9,249.54 64.8,252 81.36,252 C98.4,252 111.72,249.54 121.32,244.62 C130.92,239.7 135.72,232.8 135.72,223.92 L135.72,183.24 C135.72,176.04 132.84,170.46 127.08,166.5 C121.32,162.54 110.28,158.76 93.96,155.16 L61.92,147.96 C47.04,144.6 35.46,140.58 27.18,135.9 C18.9,131.22 13.14,124.8 9.9,116.64 C6.66,108.48 5.04,97.8 5.04,84.6 L5.04,56.88 C5.04,38.4 11.76,24.3 25.2,14.58 C38.64,4.86 57.96,5.68434189e-14 83.16,5.68434189e-14 C108.36,5.68434189e-14 127.62,4.86 140.94,14.58 C154.26,24.3 160.92,38.4 160.92,56.88 L160.92,72.72 C160.92,78.24 156.12,81 146.52,81 C136.92,81 132.12,78.24 132.12,72.72 L132.12,53.28 C132.12,34.56 115.8,25.2 83.16,25.2 C67.08,25.2 54.84,27.6 46.44,32.4 C38.04,37.2 33.84,44.16 33.84,53.28 L33.84,83.88 C33.84,96.6 35.76,105.48 39.6,110.52 C43.44,115.56 50.88,119.4 61.92,122.04 L108.72,132.48 C123.12,135.6 134.34,139.38 142.38,143.82 C150.42,148.26 156.12,153.84 159.48,160.56 C162.84,167.28 164.52,175.8 164.52,186.12 L164.52,220.32 C164.52,238.32 157.26,252.3 142.74,262.26 C128.22,272.22 107.76,277.2 81.36,277.2 Z" id="Path"></path>
                <path d="M303.48,277.2 C277.56,277.2 257.52,272.22 243.36,262.26 C229.2,252.3 222.12,238.32 222.12,220.32 L222.12,204.48 C222.12,198.96 226.92,196.2 236.52,196.2 C246.12,196.2 250.92,198.96 250.92,204.48 L250.92,223.92 C250.92,232.8 255.54,239.7 264.78,244.62 C274.02,249.54 286.92,252 303.48,252 C320.52,252 333.84,249.54 343.44,244.62 C353.04,239.7 357.84,232.8 357.84,223.92 L357.84,183.24 C357.84,176.04 354.96,170.46 349.2,166.5 C343.44,162.54 332.4,158.76 316.08,155.16 L284.04,147.96 C269.16,144.6 257.58,140.58 249.3,135.9 C241.02,131.22 235.26,124.8 232.02,116.64 C228.78,108.48 227.16,97.8 227.16,84.6 L227.16,56.88 C227.16,38.4 233.88,24.3 247.32,14.58 C260.76,4.86 280.08,5.68434189e-14 305.28,5.68434189e-14 C330.48,5.68434189e-14 349.74,4.86 363.06,14.58 C376.38,24.3 383.04,38.4 383.04,56.88 L383.04,72.72 C383.04,78.24 378.24,81 368.64,81 C359.04,81 354.24,78.24 354.24,72.72 L354.24,53.28 C354.24,34.56 337.92,25.2 305.28,25.2 C289.2,25.2 276.96,27.6 268.56,32.4 C260.16,37.2 255.96,44.16 255.96,53.28 L255.96,83.88 C255.96,96.6 257.88,105.48 261.72,110.52 C265.56,115.56 273,119.4 284.04,122.04 L330.84,132.48 C345.24,135.6 356.46,139.38 364.5,143.82 C372.54,148.26 378.24,153.84 381.6,160.56 C384.96,167.28 386.64,175.8 386.64,186.12 L386.64,220.32 C386.64,238.32 379.38,252.3 364.86,262.26 C350.34,272.22 329.88,277.2 303.48,277.2 Z" id="Path"></path>
                <path d="M621.72,11.88 L621.72,265.32 C621.72,270.84 616.92,273.6 607.32,273.6 C597.72,273.6 592.92,270.84 592.92,265.32 L592.92,153.36 L483.84,153.36 L483.84,265.32 C483.84,270.84 479.04,273.6 469.44,273.6 C459.84,273.6 455.04,270.84 455.04,265.32 L455.04,11.88 C455.04,6.36 459.84,3.6 469.44,3.6 C479.04,3.6 483.84,6.36 483.84,11.88 L483.84,128.16 L592.92,128.16 L592.92,11.88 C592.92,6.36 597.72,3.6 607.32,3.6 C616.92,3.6 621.72,6.36 621.72,11.88 Z" id="Path"></path>
            </g>
            <path d="M26.1277855,0.394430084 L59.8345642,0.394430084 C68.9587705,0.394430084 73.5774287,0.433247349 77.0649869,2.25765878 C80.1270786,3.85996616 82.6157387,6.4221529 84.172065,9.57471316 C85.9441216,13.1653101 85.9629732,17.8816078 85.9629732,27.2753858 L85.9629732,144.037718 C85.9629732,146.366754 85.9629732,147.570089 85.6801982,148.656972 C85.4175711,149.614152 84.9897282,150.514842 84.4171366,151.315955 C83.459963,152.50522 82.3574229,153.56205 81.1369467,154.460153 L68.0350389,165.406622 C65.9048007,167.192216 64.8302557,168.085013 64.4343707,169.171896 C64.0965766,170.11117 64.0965766,171.143918 64.4343707,172.083191 C64.811404,173.150666 65.9048007,174.043463 68.0350389,175.829057 L81.1369467,186.794935 C82.9090033,188.269991 83.77618,189.026927 84.4171366,189.939133 C84.9826866,190.754296 85.4162749,191.627684 85.6801982,192.598116 C85.9653689,194.119156 86.0603983,195.671504 85.9629732,197.21737 L85.9629732,250.513474 C85.9629732,259.907252 85.9441216,264.62355 84.172065,268.214147 C82.6157387,271.366707 80.1270786,273.928894 77.0649869,275.531201 C73.5774287,277.355613 68.9587705,277.39443 59.8345642,277.39443 L26.1277855,277.39443 C17.0035792,277.39443 12.4414761,277.355613 8.93506621,275.531201 C5.87297447,273.928894 3.38431438,271.366707 1.82798815,268.214147 C0.0559315568,264.62355 0.0370798908,259.907252 0.0370798908,250.513474 L0.0370798908,133.751143 C0.0370798908,131.422107 0.0370798908,130.218771 0.31985488,129.131888 C0.582112042,128.162607 1.00979848,127.249103 1.5829165,126.434088 C2.22387314,125.521882 3.09104977,124.823172 4.86310637,123.328707 L17.9650142,112.382238 C20.0952524,110.596644 21.1697974,109.703847 21.5656824,108.616964 C21.9034765,107.67769 21.9034765,106.644942 21.5656824,105.705669 C21.1886491,104.638194 20.0952524,103.745397 17.9650142,101.959803 L4.86310637,90.9939256 C3.64222743,90.0963301 2.53962711,89.0394419 1.5829165,87.8497272 C1.00979848,87.0347126 0.582112042,86.1212082 0.31985488,85.1519273 C0.0346010324,83.6439961 -0.0604422403,82.104469 0.0370798908,80.5714901 L0.0370798908,27.2947944 C0.0370798908,17.9010164 0.0559315568,13.1847188 1.82798815,9.59412179 C3.38431438,6.44156154 5.87297447,3.87937479 8.93506621,2.27706742 C12.4414761,0.452655981 17.0035792,0.413838717 26.1277855,0.413838717 L26.1277855,0.394430084 Z" id="Path"></path>
        </g>
    </g>
</svg>